<svg xmlns="http://www.w3.org/2000/svg" viewBox="0 0 320 320">
  <defs>
    <linearGradient id="bg" x1="0" y1="0" x2="1" y2="1">
      <stop offset="0%" stop-color="#1b2d54"/>
      <stop offset="100%" stop-color="#3c74a6"/>
    </linearGradient>
  </defs>
  <rect width="320" height="320" rx="32" fill="url(#bg)"/>
  <circle cx="160" cy="123" r="50" fill="#f0bf9b"/>
  <path d="M88 126c8-58 131-66 144 8 4 23-9 49-9 49-17-22-31-41-63-41-28 0-49 11-67 32 0 0-11-25-5-48z" fill="#694f33"/>
  <path d="M84 286c18-61 51-86 76-86 23 0 58 25 77 86" fill="#1e2a46"/>
  <path d="M116 284c8-36 26-61 44-61 16 0 33 27 43 61" fill="#d7e9ff" opacity=".84"/>
  <circle cx="141" cy="122" r="5" fill="#2a1b1b"/>
  <circle cx="180" cy="122" r="5" fill="#2a1b1b"/>
  <path d="M143 151c10 7 24 8 34 0" fill="none" stroke="#9a5e4b" stroke-width="5" stroke-linecap="round"/>
</svg>
