<svg xmlns="http://www.w3.org/2000/svg" viewBox="0 0 320 320">
  <defs>
    <linearGradient id="bg" x1="0" y1="0" x2="1" y2="1">
      <stop offset="0%" stop-color="#113238"/>
      <stop offset="100%" stop-color="#21636c"/>
    </linearGradient>
  </defs>
  <rect width="320" height="320" rx="32" fill="url(#bg)"/>
  <circle cx="160" cy="121" r="52" fill="#ddb392"/>
  <path d="M92 123c12-56 123-66 138 0 3 15-3 37-3 37-18-18-41-25-67-25-24 0-45 6-65 25 0 0-7-21-3-37z" fill="#0d1017"/>
  <path d="M78 286c14-60 51-92 82-92 30 0 68 32 82 92" fill="#1d3540"/>
  <path d="M118 286c13-46 28-68 42-68 15 0 29 22 43 68" fill="#d7e8ef" opacity=".86"/>
  <circle cx="140" cy="121" r="5" fill="#241717"/>
  <circle cx="181" cy="121" r="5" fill="#241717"/>
  <path d="M143 150c11 8 24 8 35 0" fill="none" stroke="#8e534b" stroke-width="5" stroke-linecap="round"/>
</svg>
